<svg version="1.1" xmlns="http://www.w3.org/2000/svg" xmlns:xlink="http://www.w3.org/1999/xlink" width="1387.078125" height="1147"><defs/><g><g transform="translate(-38,-22) scale(1,1)"><rect fill="#C0C0C0" stroke="none" x="135" y="39" width="1176" height="967" opacity="0.2"/></g><g transform="translate(-38,-22) scale(1,1)"><rect fill="#ffffff" stroke="none" x="128" y="32" width="1176" height="967"/></g><g transform="translate(-38,-22) scale(1,1)"><path fill="none" stroke="#000000" d="M 128 32 L 1304 32 L 1304 999 L 128 999 L 128 32 Z Z" stroke-miterlimit="10"/></g><g transform="translate(-38,-22) scale(1,1)"><g><path fill="none" stroke="none"/><text fill="#000000" stroke="none" font-family="Arial" font-size="13px" font-style="normal" font-weight="bold" text-decoration="none" x="692.16455078125" y="51.5">systems</text></g></g><g transform="translate(-38,-22) scale(1,1)"><path fill="#ffffff" stroke="none" d="M 72.40935031960227 233.68 C 72.40935031960227 228.886167936 76.29519264454773 225 81.088623046875 225 C 85.88205344920227 225 89.76789577414773 228.886167936 89.76789577414773 233.68 C 89.76789577414773 238.47383206400002 85.88205344920227 242.36 81.088623046875 242.36 C 76.29519264454773 242.36 72.40935031960227 238.47383206400002 72.40935031960227 233.68 Z"/></g><g transform="translate(-38,-22) scale(1,1)"><path fill="none" stroke="#000000" d="M 72.40935031960227 233.68 C 72.40935031960227 228.886167936 76.29519264454773 225 81.088623046875 225 C 85.88205344920227 225 89.76789577414773 228.886167936 89.76789577414773 233.68 C 89.76789577414773 238.47383206400002 85.88205344920227 242.36 81.088623046875 242.36 C 76.29519264454773 242.36 72.40935031960227 238.47383206400002 72.40935031960227 233.68 Z" stroke-miterlimit="10"/></g><g transform="translate(-38,-22) scale(1,1)"><path fill="none" stroke="#000000" d="M 81.088623046875 242.36 L 81.088623046875 259.64" stroke-miterlimit="10"/></g><g transform="translate(-38,-22) scale(1,1)"><path fill="none" stroke="#000000" d="M 71.89880486505682 248.84 L 90.27844122869318 248.84" stroke-miterlimit="10"/></g><g transform="translate(-38,-22) scale(1,1)"><path fill="none" stroke="#000000" d="M 81.088623046875 259.64 L 68.32498668323863 277" stroke-miterlimit="10"/></g><g transform="translate(-38,-22) scale(1,1)"><path fill="none" stroke="#000000" d="M 81.088623046875 259.64 L 93.85225941051137 277" stroke-miterlimit="10"/></g><g transform="translate(-38,-22) scale(1,1)"><g><path fill="none" stroke="none"/><text fill="#000000" stroke="none" font-family="Arial" font-size="13px" font-style="normal" font-weight="bold" text-decoration="none" x="63.746826171875" y="297.5">Guest</text></g></g><g transform="translate(-38,-22) scale(1,1)"><path fill="#C0C0C0" stroke="none" d="M 151 104 C 151 94.6111584 173.6096176 87 201.5 87 C 229.3903824 87 252 94.6111584 252 104 C 252 113.3888416 229.3903824 121 201.5 121 C 173.6096176 121 151 113.3888416 151 104 Z" opacity="0.2"/></g><g transform="translate(-38,-22) scale(1,1)"><path fill="#ffffff" stroke="none" d="M 144 97 C 144 87.6111584 166.6096176 80 194.5 80 C 222.3903824 80 245 87.6111584 245 97 C 245 106.3888416 222.3903824 114 194.5 114 C 166.6096176 114 144 106.3888416 144 97 Z"/></g><g transform="translate(-38,-22) scale(1,1)"><path fill="none" stroke="#000000" d="M 144 97 C 144 87.6111584 166.6096176 80 194.5 80 C 222.3903824 80 245 87.6111584 245 97 C 245 106.3888416 222.3903824 114 194.5 114 C 166.6096176 114 144 106.3888416 144 97 Z" stroke-miterlimit="10"/></g><g transform="translate(-38,-22) scale(1,1)"><g><path fill="none" stroke="none"/><text fill="#000000" stroke="none" font-family="Arial" font-size="13px" font-style="normal" font-weight="bold" text-decoration="none" x="172.45458984375" y="104">Sign up</text></g></g><g transform="translate(-38,-22) scale(1,1)"><path fill="#C0C0C0" stroke="none" d="M 151 344 C 151 334.6111584 173.6096176 327 201.5 327 C 229.3903824 327 252 334.6111584 252 344 C 252 353.3888416 229.3903824 361 201.5 361 C 173.6096176 361 151 353.3888416 151 344 Z" opacity="0.2"/></g><g transform="translate(-38,-22) scale(1,1)"><path fill="#ffffff" stroke="none" d="M 144 337 C 144 327.6111584 166.6096176 320 194.5 320 C 222.3903824 320 245 327.6111584 245 337 C 245 346.3888416 222.3903824 354 194.5 354 C 166.6096176 354 144 346.3888416 144 337 Z"/></g><g transform="translate(-38,-22) scale(1,1)"><path fill="none" stroke="#000000" d="M 144 337 C 144 327.6111584 166.6096176 320 194.5 320 C 222.3903824 320 245 327.6111584 245 337 C 245 346.3888416 222.3903824 354 194.5 354 C 166.6096176 354 144 346.3888416 144 337 Z" stroke-miterlimit="10"/></g><g transform="translate(-38,-22) scale(1,1)"><g><path fill="none" stroke="none"/><text fill="#000000" stroke="none" font-family="Arial" font-size="13px" font-style="normal" font-weight="bold" text-decoration="none" x="178.595947265625" y="344">Login</text></g></g><g transform="translate(-38,-22) scale(1,1)"><path fill="#C0C0C0" stroke="none" d="M 295 104 C 295 94.6111584 329.697928 87 372.5 87 C 415.302072 87 450 94.6111584 450 104 C 450 113.3888416 415.302072 121 372.5 121 C 329.697928 121 295 113.3888416 295 104 Z" opacity="0.2"/></g><g transform="translate(-38,-22) scale(1,1)"><path fill="#ffffff" stroke="none" d="M 288 97 C 288 87.6111584 322.697928 80 365.5 80 C 408.302072 80 443 87.6111584 443 97 C 443 106.3888416 408.302072 114 365.5 114 C 322.697928 114 288 106.3888416 288 97 Z"/></g><g transform="translate(-38,-22) scale(1,1)"><path fill="none" stroke="#000000" d="M 288 97 C 288 87.6111584 322.697928 80 365.5 80 C 408.302072 80 443 87.6111584 443 97 C 443 106.3888416 408.302072 114 365.5 114 C 322.697928 114 288 106.3888416 288 97 Z" stroke-miterlimit="10"/></g><g transform="translate(-38,-22) scale(1,1)"><g><path fill="none" stroke="none"/><text fill="#000000" stroke="none" font-family="Arial" font-size="13px" font-style="normal" font-weight="bold" text-decoration="none" x="318.175048828125" y="104">Reset Password</text></g></g><g transform="translate(-38,-22) scale(1,1)"><path fill="#C0C0C0" stroke="none" d="M 335 168 C 335 158.6111584 368.57864 151 410 151 C 451.42136 151 485 158.6111584 485 168 C 485 177.3888416 451.42136 185 410 185 C 368.57864 185 335 177.3888416 335 168 Z" opacity="0.2"/></g><g transform="translate(-38,-22) scale(1,1)"><path fill="#ffffff" stroke="none" d="M 328 161 C 328 151.6111584 361.57864 144 403 144 C 444.42136 144 478 151.6111584 478 161 C 478 170.3888416 444.42136 178 403 178 C 361.57864 178 328 170.3888416 328 161 Z"/></g><g transform="translate(-38,-22) scale(1,1)"><path fill="none" stroke="#000000" d="M 328 161 C 328 151.6111584 361.57864 144 403 144 C 444.42136 144 478 151.6111584 478 161 C 478 170.3888416 444.42136 178 403 178 C 361.57864 178 328 170.3888416 328 161 Z" stroke-miterlimit="10"/></g><g transform="translate(-38,-22) scale(1,1)"><g><path fill="none" stroke="none"/><text fill="#000000" stroke="none" font-family="Arial" font-size="13px" font-style="normal" font-weight="bold" text-decoration="none" x="357.8427734375" y="168">Full text Search</text></g></g><g transform="translate(-38,-22) scale(1,1)"><path fill="#C0C0C0" stroke="none" d="M 599 248 C 599 238.6111584 621.8334752 231 650 231 C 678.1665248 231 701 238.6111584 701 248 C 701 257.3888416 678.1665248 265 650 265 C 621.8334752 265 599 257.3888416 599 248 Z" opacity="0.2"/></g><g transform="translate(-38,-22) scale(1,1)"><path fill="#ffffff" stroke="none" d="M 592 241 C 592 231.6111584 614.8334752 224 643 224 C 671.1665248 224 694 231.6111584 694 241 C 694 250.3888416 671.1665248 258 643 258 C 614.8334752 258 592 250.3888416 592 241 Z"/></g><g transform="translate(-38,-22) scale(1,1)"><path fill="none" stroke="#000000" d="M 592 241 C 592 231.6111584 614.8334752 224 643 224 C 671.1665248 224 694 231.6111584 694 241 C 694 250.3888416 671.1665248 258 643 258 C 614.8334752 258 592 250.3888416 592 241 Z" stroke-miterlimit="10"/></g><g transform="translate(-38,-22) scale(1,1)"><g><path fill="none" stroke="none"/><text fill="#000000" stroke="none" font-family="Arial" font-size="13px" font-style="normal" font-weight="bold" text-decoration="none" x="613.369140625" y="248">Read post</text></g></g><g transform="translate(-38,-22) scale(1,1)"><path fill="#C0C0C0" stroke="none" d="M 295 248 C 295 238.6111584 326.340064 231 365 231 C 403.659936 231 435 238.6111584 435 248 C 435 257.3888416 403.659936 265 365 265 C 326.340064 265 295 257.3888416 295 248 Z" opacity="0.2"/></g><g transform="translate(-38,-22) scale(1,1)"><path fill="#ffffff" stroke="none" d="M 288 241 C 288 231.6111584 319.340064 224 358 224 C 396.659936 224 428 231.6111584 428 241 C 428 250.3888416 396.659936 258 358 258 C 319.340064 258 288 250.3888416 288 241 Z"/></g><g transform="translate(-38,-22) scale(1,1)"><path fill="none" stroke="#000000" d="M 288 241 C 288 231.6111584 319.340064 224 358 224 C 396.659936 224 428 231.6111584 428 241 C 428 250.3888416 396.659936 258 358 258 C 319.340064 258 288 250.3888416 288 241 Z" stroke-miterlimit="10"/></g><g transform="translate(-38,-22) scale(1,1)"><g><path fill="none" stroke="none"/><text fill="#000000" stroke="none" font-family="Arial" font-size="13px" font-style="normal" font-weight="bold" text-decoration="none" x="316.819580078125" y="248">View list posts</text></g></g><g transform="translate(-38,-22) scale(1,1)"><path fill="none" stroke="#000000" d="M 107 248 L 334 115" stroke-miterlimit="10"/></g><g transform="translate(-38,-22) scale(1,1)"><path fill="none" stroke="#000000" d="M 107 261 L 287 247" stroke-miterlimit="10"/></g><g transform="translate(-38,-22) scale(1,1)"><path fill="none" stroke="#000000" d="M 107 280 L 167 319" stroke-miterlimit="10"/></g><g transform="translate(-38,-22) scale(1,1)"><path fill="none" stroke="#000000" d="M 107 225 L 182 115" stroke-miterlimit="10"/></g><g transform="translate(-38,-22) scale(1,1)"><path fill="none" stroke="#000000" d="M 591 241 L 429 241" stroke-miterlimit="10" stroke-dasharray="3"/></g><g transform="translate(-38,-22) scale(1,1)"><path fill="none" stroke="#000000" d="M 439.16267485762415 236.790482243984 L 429 241 L 439.16267485762415 245.209517756016" stroke-miterlimit="10"/></g><g transform="translate(-38,-22) scale(1,1)"><g><path fill="none" stroke="none"/><text fill="#000000" stroke="none" font-family="Arial" font-size="13px" font-style="normal" font-weight="normal" text-decoration="none" x="508" y="237">«extend»</text></g></g><g transform="translate(-38,-22) scale(1,1)"><path fill="none" stroke="#000000" d="M 393 179 L 368 223" stroke-miterlimit="10" stroke-dasharray="3"/></g><g transform="translate(-38,-22) scale(1,1)"><path fill="none" stroke="#000000" d="M 369.36046416971374 212.08445433141682 L 368 223 L 376.6804498025725 216.2435370773593" stroke-miterlimit="10"/></g><g transform="translate(-38,-22) scale(1,1)"><g><path fill="none" stroke="none"/><text fill="#000000" stroke="none" font-family="Arial" font-size="13px" font-style="normal" font-weight="normal" text-decoration="none" x="328" y="196">«extend»</text></g></g><g transform="translate(-38,-22) scale(1,1)"><path fill="#ffffff" stroke="none" d="M 68.74479953835227 721.6800000000001 C 68.74479953835227 716.8861679360001 72.63064186329773 713 77.424072265625 713 C 82.21750266795227 713 86.10334499289773 716.8861679360001 86.10334499289773 721.6800000000001 C 86.10334499289773 726.473832064 82.21750266795227 730.36 77.424072265625 730.36 C 72.63064186329773 730.36 68.74479953835227 726.473832064 68.74479953835227 721.6800000000001 Z"/></g><g transform="translate(-38,-22) scale(1,1)"><path fill="none" stroke="#000000" d="M 68.74479953835227 721.6800000000001 C 68.74479953835227 716.8861679360001 72.63064186329773 713 77.424072265625 713 C 82.21750266795227 713 86.10334499289773 716.8861679360001 86.10334499289773 721.6800000000001 C 86.10334499289773 726.473832064 82.21750266795227 730.36 77.424072265625 730.36 C 72.63064186329773 730.36 68.74479953835227 726.473832064 68.74479953835227 721.6800000000001 Z" stroke-miterlimit="10"/></g><g transform="translate(-38,-22) scale(1,1)"><path fill="none" stroke="#000000" d="M 77.424072265625 730.36 L 77.424072265625 747.64" stroke-miterlimit="10"/></g><g transform="translate(-38,-22) scale(1,1)"><path fill="none" stroke="#000000" d="M 68.23425408380682 736.84 L 86.61389044744318 736.84" stroke-miterlimit="10"/></g><g transform="translate(-38,-22) scale(1,1)"><path fill="none" stroke="#000000" d="M 77.424072265625 747.64 L 64.66043590198863 765" stroke-miterlimit="10"/></g><g transform="translate(-38,-22) scale(1,1)"><path fill="none" stroke="#000000" d="M 77.424072265625 747.64 L 90.18770862926137 765" stroke-miterlimit="10"/></g><g transform="translate(-38,-22) scale(1,1)"><g><path fill="none" stroke="none"/><text fill="#000000" stroke="none" font-family="Arial" font-size="13px" font-style="normal" font-weight="bold" text-decoration="none" x="53.58544921875" y="785.5">Member</text></g></g><g transform="translate(-38,-22) scale(1,1)"><path fill="#C0C0C0" stroke="none" d="M 151 424 C 151 414.6111584 173.6096176 407 201.5 407 C 229.3903824 407 252 414.6111584 252 424 C 252 433.3888416 229.3903824 441 201.5 441 C 173.6096176 441 151 433.3888416 151 424 Z" opacity="0.2"/></g><g transform="translate(-38,-22) scale(1,1)"><path fill="#ffffff" stroke="none" d="M 144 417 C 144 407.6111584 166.6096176 400 194.5 400 C 222.3903824 400 245 407.6111584 245 417 C 245 426.3888416 222.3903824 434 194.5 434 C 166.6096176 434 144 426.3888416 144 417 Z"/></g><g transform="translate(-38,-22) scale(1,1)"><path fill="none" stroke="#000000" d="M 144 417 C 144 407.6111584 166.6096176 400 194.5 400 C 222.3903824 400 245 407.6111584 245 417 C 245 426.3888416 222.3903824 434 194.5 434 C 166.6096176 434 144 426.3888416 144 417 Z" stroke-miterlimit="10"/></g><g transform="translate(-38,-22) scale(1,1)"><g><path fill="none" stroke="none"/><text fill="#000000" stroke="none" font-family="Arial" font-size="13px" font-style="normal" font-weight="bold" text-decoration="none" x="174.619140625" y="424">Logout</text></g></g><g transform="translate(-38,-22) scale(1,1)"><path fill="#C0C0C0" stroke="none" d="M 231 760 C 231 750.6111584 259.8776304 743 295.5 743 C 331.1223696 743 360 750.6111584 360 760 C 360 769.3888416 331.1223696 777 295.5 777 C 259.8776304 777 231 769.3888416 231 760 Z" opacity="0.2"/></g><g transform="translate(-38,-22) scale(1,1)"><path fill="#ffffff" stroke="none" d="M 224 753 C 224 743.6111584 252.8776304 736 288.5 736 C 324.1223696 736 353 743.6111584 353 753 C 353 762.3888416 324.1223696 770 288.5 770 C 252.8776304 770 224 762.3888416 224 753 Z"/></g><g transform="translate(-38,-22) scale(1,1)"><path fill="none" stroke="#000000" d="M 224 753 C 224 743.6111584 252.8776304 736 288.5 736 C 324.1223696 736 353 743.6111584 353 753 C 353 762.3888416 324.1223696 770 288.5 770 C 252.8776304 770 224 762.3888416 224 753 Z" stroke-miterlimit="10"/></g><g transform="translate(-38,-22) scale(1,1)"><g><path fill="none" stroke="none"/><text fill="#000000" stroke="none" font-family="Arial" font-size="13px" font-style="normal" font-weight="bold" text-decoration="none" x="249.477783203125" y="760">Create a post</text></g></g><g transform="translate(-38,-22) scale(1,1)"><path fill="#C0C0C0" stroke="none" d="M 367 808 C 367 798.6111584 394.3106272 791 428 791 C 461.6893728 791 489 798.6111584 489 808 C 489 817.3888416 461.6893728 825 428 825 C 394.3106272 825 367 817.3888416 367 808 Z" opacity="0.2"/></g><g transform="translate(-38,-22) scale(1,1)"><path fill="#ffffff" stroke="none" d="M 360 801 C 360 791.6111584 387.3106272 784 421 784 C 454.6893728 784 482 791.6111584 482 801 C 482 810.3888416 454.6893728 818 421 818 C 387.3106272 818 360 810.3888416 360 801 Z"/></g><g transform="translate(-38,-22) scale(1,1)"><path fill="none" stroke="#000000" d="M 360 801 C 360 791.6111584 387.3106272 784 421 784 C 454.6893728 784 482 791.6111584 482 801 C 482 810.3888416 454.6893728 818 421 818 C 387.3106272 818 360 810.3888416 360 801 Z" stroke-miterlimit="10"/></g><g transform="translate(-38,-22) scale(1,1)"><g><path fill="none" stroke="none"/><text fill="#000000" stroke="none" font-family="Arial" font-size="13px" font-style="normal" font-weight="bold" text-decoration="none" x="384.869140625" y="808">Close a post</text></g></g><g transform="translate(-38,-22) scale(1,1)"><path fill="#C0C0C0" stroke="none" d="M 487 344 C 487 334.6111584 512.0720512 327 543 327 C 573.9279488 327 599 334.6111584 599 344 C 599 353.3888416 573.9279488 361 543 361 C 512.0720512 361 487 353.3888416 487 344 Z" opacity="0.2"/></g><g transform="translate(-38,-22) scale(1,1)"><path fill="#ffffff" stroke="none" d="M 480 337 C 480 327.6111584 505.0720512 320 536 320 C 566.9279488 320 592 327.6111584 592 337 C 592 346.3888416 566.9279488 354 536 354 C 505.0720512 354 480 346.3888416 480 337 Z"/></g><g transform="translate(-38,-22) scale(1,1)"><path fill="none" stroke="#000000" d="M 480 337 C 480 327.6111584 505.0720512 320 536 320 C 566.9279488 320 592 327.6111584 592 337 C 592 346.3888416 566.9279488 354 536 354 C 505.0720512 354 480 346.3888416 480 337 Z" stroke-miterlimit="10"/></g><g transform="translate(-38,-22) scale(1,1)"><g><path fill="none" stroke="none"/><text fill="#000000" stroke="none" font-family="Arial" font-size="13px" font-style="normal" font-weight="bold" text-decoration="none" x="507.825927734375" y="344">Comment</text></g></g><g transform="translate(-38,-22) scale(1,1)"><path fill="#C0C0C0" stroke="none" d="M 295 344 C 295 334.6111584 326.5639216 327 365.5 327 C 404.4360784 327 436 334.6111584 436 344 C 436 353.3888416 404.4360784 361 365.5 361 C 326.5639216 361 295 353.3888416 295 344 Z" opacity="0.2"/></g><g transform="translate(-38,-22) scale(1,1)"><path fill="#ffffff" stroke="none" d="M 288 337 C 288 327.6111584 319.5639216 320 358.5 320 C 397.4360784 320 429 327.6111584 429 337 C 429 346.3888416 397.4360784 354 358.5 354 C 319.5639216 354 288 346.3888416 288 337 Z"/></g><g transform="translate(-38,-22) scale(1,1)"><path fill="none" stroke="#000000" d="M 288 337 C 288 327.6111584 319.5639216 320 358.5 320 C 397.4360784 320 429 327.6111584 429 337 C 429 346.3888416 397.4360784 354 358.5 354 C 319.5639216 354 288 346.3888416 288 337 Z" stroke-miterlimit="10"/></g><g transform="translate(-38,-22) scale(1,1)"><g><path fill="none" stroke="none"/><text fill="#000000" stroke="none" font-family="Arial" font-size="13px" font-style="normal" font-weight="bold" text-decoration="none" x="321.6455078125" y="344">Vote for post</text></g></g><g transform="translate(-38,-22) scale(1,1)"><path fill="#C0C0C0" stroke="none" d="M 295 696 C 295 686.6111584 318.2811904 679 347 679 C 375.7188096 679 399 686.6111584 399 696 C 399 705.3888416 375.7188096 713 347 713 C 318.2811904 713 295 705.3888416 295 696 Z" opacity="0.2"/></g><g transform="translate(-38,-22) scale(1,1)"><path fill="#ffffff" stroke="none" d="M 288 689 C 288 679.6111584 311.2811904 672 340 672 C 368.7188096 672 392 679.6111584 392 689 C 392 698.3888416 368.7188096 706 340 706 C 311.2811904 706 288 698.3888416 288 689 Z"/></g><g transform="translate(-38,-22) scale(1,1)"><path fill="none" stroke="#000000" d="M 288 689 C 288 679.6111584 311.2811904 672 340 672 C 368.7188096 672 392 679.6111584 392 689 C 392 698.3888416 368.7188096 706 340 706 C 311.2811904 706 288 698.3888416 288 689 Z" stroke-miterlimit="10"/></g><g transform="translate(-38,-22) scale(1,1)"><g><path fill="none" stroke="none"/><text fill="#000000" stroke="none" font-family="Arial" font-size="13px" font-style="normal" font-weight="bold" text-decoration="none" x="314.714111328125" y="696">list posts</text></g></g><g transform="translate(-38,-22) scale(1,1)"><path fill="#C0C0C0" stroke="none" d="M 159 968 C 159 958.6111584 189.4446336 951 227 951 C 264.5553664 951 295 958.6111584 295 968 C 295 977.3888416 264.5553664 985 227 985 C 189.4446336 985 159 977.3888416 159 968 Z" opacity="0.2"/></g><g transform="translate(-38,-22) scale(1,1)"><path fill="#ffffff" stroke="none" d="M 152 961 C 152 951.6111584 182.4446336 944 220 944 C 257.5553664 944 288 951.6111584 288 961 C 288 970.3888416 257.5553664 978 220 978 C 182.4446336 978 152 970.3888416 152 961 Z"/></g><g transform="translate(-38,-22) scale(1,1)"><path fill="none" stroke="#000000" d="M 152 961 C 152 951.6111584 182.4446336 944 220 944 C 257.5553664 944 288 951.6111584 288 961 C 288 970.3888416 257.5553664 978 220 978 C 182.4446336 978 152 970.3888416 152 961 Z" stroke-miterlimit="10"/></g><g transform="translate(-38,-22) scale(1,1)"><g><path fill="none" stroke="none"/><text fill="#000000" stroke="none" font-family="Arial" font-size="13px" font-style="normal" font-weight="bold" text-decoration="none" x="179.530517578125" y="968">Update profile</text></g></g><g transform="translate(-38,-22) scale(1,1)"><path fill="none" stroke="#000000" d="M 91 711 L 188 435" stroke-miterlimit="10"/></g><g transform="translate(-38,-22) scale(1,1)"><path fill="none" stroke="#000000" d="M 108 751 L 223 752" stroke-miterlimit="10"/></g><g transform="translate(-38,-22) scale(1,1)"><path fill="none" stroke="#000000" d="M 108 723 L 516 355" stroke-miterlimit="10"/></g><g transform="translate(-38,-22) scale(1,1)"><path fill="none" stroke="#000000" d="M 104 711 L 346 355" stroke-miterlimit="10"/></g><g transform="translate(-38,-22) scale(1,1)"><path fill="none" stroke="#000000" d="M 108 744 L 287 701" stroke-miterlimit="10"/></g><g transform="translate(-38,-22) scale(1,1)"><path fill="none" stroke="#000000" d="M 105 792 L 208 943" stroke-miterlimit="10"/></g><g transform="translate(-38,-22) scale(1,1)"><path fill="none" stroke="#000000" d="M 408 783 L 353 707" stroke-miterlimit="10" stroke-dasharray="3"/></g><g transform="translate(-38,-22) scale(1,1)"><path fill="none" stroke="#000000" d="M 362.36825838114135 712.7650442239566 L 353 707 L 355.54785716461276 717.7008608938128" stroke-miterlimit="10"/></g><g transform="translate(-38,-22) scale(1,1)"><g><path fill="none" stroke="none"/><text fill="#000000" stroke="none" font-family="Arial" font-size="13px" font-style="normal" font-weight="normal" text-decoration="none" x="392" y="756">«extend»</text></g></g><g transform="translate(-38,-22) scale(1,1)"><path fill="none" stroke="#000000" d="M 411 319 L 591 259" stroke-miterlimit="10" stroke-dasharray="3"/></g><g transform="translate(-38,-22) scale(1,1)"><path fill="none" stroke="#000000" d="M 582.6900064950472 266.2072191549614 L 591 259 L 580.0276737030609 258.22022077900255" stroke-miterlimit="10"/></g><g transform="translate(-38,-22) scale(1,1)"><g><path fill="none" stroke="none"/><text fill="#000000" stroke="none" font-family="Arial" font-size="13px" font-style="normal" font-weight="normal" text-decoration="none" x="441" y="289">«extend»</text></g></g><g transform="translate(-38,-22) scale(1,1)"><path fill="none" stroke="#000000" d="M 556 319 L 623 259" stroke-miterlimit="10" stroke-dasharray="3"/></g><g transform="translate(-38,-22) scale(1,1)"><path fill="none" stroke="#000000" d="M 618.2375634804062 268.9156037837763 L 623 259 L 612.6210581669575 262.643839517092" stroke-miterlimit="10"/></g><g transform="translate(-38,-22) scale(1,1)"><g><path fill="none" stroke="none"/><text fill="#000000" stroke="none" font-family="Arial" font-size="13px" font-style="normal" font-weight="normal" text-decoration="none" x="586" y="306">«extend»</text></g></g><g transform="translate(-38,-22) scale(1,1)"><path fill="#C0C0C0" stroke="none" d="M 175 808 C 175 798.6111584 208.80249759999998 791 250.5 791 C 292.1975024 791 326 798.6111584 326 808 C 326 817.3888416 292.1975024 825 250.5 825 C 208.80249759999998 825 175 817.3888416 175 808 Z" opacity="0.2"/></g><g transform="translate(-38,-22) scale(1,1)"><path fill="#ffffff" stroke="none" d="M 168 801 C 168 791.6111584 201.80249759999998 784 243.5 784 C 285.1975024 784 319 791.6111584 319 801 C 319 810.3888416 285.1975024 818 243.5 818 C 201.80249759999998 818 168 810.3888416 168 801 Z"/></g><g transform="translate(-38,-22) scale(1,1)"><path fill="none" stroke="#000000" d="M 168 801 C 168 791.6111584 201.80249759999998 784 243.5 784 C 285.1975024 784 319 791.6111584 319 801 C 319 810.3888416 285.1975024 818 243.5 818 C 201.80249759999998 818 168 810.3888416 168 801 Z" stroke-miterlimit="10"/></g><g transform="translate(-38,-22) scale(1,1)"><g><path fill="none" stroke="none"/><text fill="#000000" stroke="none" font-family="Arial" font-size="13px" font-style="normal" font-weight="bold" text-decoration="none" x="198.69189453125" y="808">Setting account</text></g></g><g transform="translate(-38,-22) scale(1,1)"><path fill="none" stroke="#000000" d="M 108 760 L 183 783" stroke-miterlimit="10"/></g><g transform="translate(-38,-22) scale(1,1)"><path fill="#ffffff" stroke="none" d="M 616.4093503196023 1089.6799999999998 C 616.4093503196023 1084.8861679359998 620.2951926445477 1081 625.088623046875 1081 C 629.8820534492023 1081 633.7678957741477 1084.8861679359998 633.7678957741477 1089.6799999999998 C 633.7678957741477 1094.473832064 629.8820534492023 1098.36 625.088623046875 1098.36 C 620.2951926445477 1098.36 616.4093503196023 1094.473832064 616.4093503196023 1089.6799999999998 Z"/></g><g transform="translate(-38,-22) scale(1,1)"><path fill="none" stroke="#000000" d="M 616.4093503196023 1089.6799999999998 C 616.4093503196023 1084.8861679359998 620.2951926445477 1081 625.088623046875 1081 C 629.8820534492023 1081 633.7678957741477 1084.8861679359998 633.7678957741477 1089.6799999999998 C 633.7678957741477 1094.473832064 629.8820534492023 1098.36 625.088623046875 1098.36 C 620.2951926445477 1098.36 616.4093503196023 1094.473832064 616.4093503196023 1089.6799999999998 Z" stroke-miterlimit="10"/></g><g transform="translate(-38,-22) scale(1,1)"><path fill="none" stroke="#000000" d="M 625.088623046875 1098.36 L 625.088623046875 1115.64" stroke-miterlimit="10"/></g><g transform="translate(-38,-22) scale(1,1)"><path fill="none" stroke="#000000" d="M 615.8988048650568 1104.84 L 634.2784412286932 1104.84" stroke-miterlimit="10"/></g><g transform="translate(-38,-22) scale(1,1)"><path fill="none" stroke="#000000" d="M 625.088623046875 1115.64 L 612.3249866832386 1133" stroke-miterlimit="10"/></g><g transform="translate(-38,-22) scale(1,1)"><path fill="none" stroke="#000000" d="M 625.088623046875 1115.64 L 637.8522594105114 1133" stroke-miterlimit="10"/></g><g transform="translate(-38,-22) scale(1,1)"><g><path fill="none" stroke="none"/><text fill="#000000" stroke="none" font-family="Arial" font-size="13px" font-style="normal" font-weight="bold" text-decoration="none" x="612.444091796875" y="1153.5">Mod</text></g></g><g transform="translate(-38,-22) scale(1,1)"><path fill="#C0C0C0" stroke="none" d="M 575 968 C 575 958.6111584 601.862912 951 635 951 C 668.137088 951 695 958.6111584 695 968 C 695 977.3888416 668.137088 985 635 985 C 601.862912 985 575 977.3888416 575 968 Z" opacity="0.2"/></g><g transform="translate(-38,-22) scale(1,1)"><path fill="#ffffff" stroke="none" d="M 568 961 C 568 951.6111584 594.862912 944 628 944 C 661.137088 944 688 951.6111584 688 961 C 688 970.3888416 661.137088 978 628 978 C 594.862912 978 568 970.3888416 568 961 Z"/></g><g transform="translate(-38,-22) scale(1,1)"><path fill="none" stroke="#000000" d="M 568 961 C 568 951.6111584 594.862912 944 628 944 C 661.137088 944 688 951.6111584 688 961 C 688 970.3888416 661.137088 978 628 978 C 594.862912 978 568 970.3888416 568 961 Z" stroke-miterlimit="10"/></g><g transform="translate(-38,-22) scale(1,1)"><g><path fill="none" stroke="none"/><text fill="#000000" stroke="none" font-family="Arial" font-size="13px" font-style="normal" font-weight="bold" text-decoration="none" x="592.595947265625" y="968">Review post</text></g></g><g transform="translate(-38,-22) scale(1,1)"><path fill="none" stroke="#000000" d="M 626 1079 L 628 979" stroke-miterlimit="10"/></g><g transform="translate(-38,-22) scale(1,1)"><path fill="#C0C0C0" stroke="none" d="M 751 968 C 751 958.6111584 773.6096176 951 801.5 951 C 829.3903824 951 852 958.6111584 852 968 C 852 977.3888416 829.3903824 985 801.5 985 C 773.6096176 985 751 977.3888416 751 968 Z" opacity="0.2"/></g><g transform="translate(-38,-22) scale(1,1)"><path fill="#ffffff" stroke="none" d="M 744 961 C 744 951.6111584 766.6096176 944 794.5 944 C 822.3903824 944 845 951.6111584 845 961 C 845 970.3888416 822.3903824 978 794.5 978 C 766.6096176 978 744 970.3888416 744 961 Z"/></g><g transform="translate(-38,-22) scale(1,1)"><path fill="none" stroke="#000000" d="M 744 961 C 744 951.6111584 766.6096176 944 794.5 944 C 822.3903824 944 845 951.6111584 845 961 C 845 970.3888416 822.3903824 978 794.5 978 C 766.6096176 978 744 970.3888416 744 961 Z" stroke-miterlimit="10"/></g><g transform="translate(-38,-22) scale(1,1)"><g><path fill="none" stroke="none"/><text fill="#000000" stroke="none" font-family="Arial" font-size="13px" font-style="normal" font-weight="bold" text-decoration="none" x="769.207763671875" y="968">Edit post</text></g></g><g transform="translate(-38,-22) scale(1,1)"><path fill="none" stroke="#000000" d="M 743 961 L 689 961" stroke-miterlimit="10" stroke-dasharray="3"/></g><g transform="translate(-38,-22) scale(1,1)"><path fill="none" stroke="#000000" d="M 699.1626748576241 956.790482243984 L 689 961 L 699.1626748576241 965.209517756016" stroke-miterlimit="10"/></g><g transform="translate(-38,-22) scale(1,1)"><g><path fill="none" stroke="none"/><text fill="#000000" stroke="none" font-family="Arial" font-size="13px" font-style="normal" font-weight="normal" text-decoration="none" x="696" y="957">«extend»</text></g></g><g transform="translate(-38,-22) scale(1,1)"><path fill="#C0C0C0" stroke="none" d="M 575 792 C 575 782.6111584 599.624336 775 630 775 C 660.375664 775 685 782.6111584 685 792 C 685 801.3888416 660.375664 809 630 809 C 599.624336 809 575 801.3888416 575 792 Z" opacity="0.2"/></g><g transform="translate(-38,-22) scale(1,1)"><path fill="#ffffff" stroke="none" d="M 568 785 C 568 775.6111584 592.624336 768 623 768 C 653.375664 768 678 775.6111584 678 785 C 678 794.3888416 653.375664 802 623 802 C 592.624336 802 568 794.3888416 568 785 Z"/></g><g transform="translate(-38,-22) scale(1,1)"><path fill="none" stroke="#000000" d="M 568 785 C 568 775.6111584 592.624336 768 623 768 C 653.375664 768 678 775.6111584 678 785 C 678 794.3888416 653.375664 802 623 802 C 592.624336 802 568 794.3888416 568 785 Z" stroke-miterlimit="10"/></g><g transform="translate(-38,-22) scale(1,1)"><g><path fill="none" stroke="none"/><text fill="#000000" stroke="none" font-family="Arial" font-size="13px" font-style="normal" font-weight="bold" text-decoration="none" x="591.1982421875" y="792">delete post</text></g></g><g transform="translate(-38,-22) scale(1,1)"><path fill="none" stroke="#000000" d="M 624 803 L 627 943" stroke-miterlimit="10" stroke-dasharray="3"/></g><g transform="translate(-38,-22) scale(1,1)"><path fill="none" stroke="#000000" d="M 622.5737267594623 932.9298408552745 L 627 943 L 630.9908299950944 932.7494743573681" stroke-miterlimit="10"/></g><g transform="translate(-38,-22) scale(1,1)"><g><path fill="none" stroke="none"/><text fill="#000000" stroke="none" font-family="Arial" font-size="13px" font-style="normal" font-weight="normal" text-decoration="none" x="626" y="851">«extend»</text></g></g><g transform="translate(-38,-22) scale(1,1)"><path fill="#C0C0C0" stroke="none" d="M 479 456 C 479 446.6111584 513.697928 439 556.5 439 C 599.302072 439 634 446.6111584 634 456 C 634 465.3888416 599.302072 473 556.5 473 C 513.697928 473 479 465.3888416 479 456 Z" opacity="0.2"/></g><g transform="translate(-38,-22) scale(1,1)"><path fill="#ffffff" stroke="none" d="M 472 449 C 472 439.6111584 506.697928 432 549.5 432 C 592.302072 432 627 439.6111584 627 449 C 627 458.3888416 592.302072 466 549.5 466 C 506.697928 466 472 458.3888416 472 449 Z"/></g><g transform="translate(-38,-22) scale(1,1)"><path fill="none" stroke="#000000" d="M 472 449 C 472 439.6111584 506.697928 432 549.5 432 C 592.302072 432 627 439.6111584 627 449 C 627 458.3888416 592.302072 466 549.5 466 C 506.697928 466 472 458.3888416 472 449 Z" stroke-miterlimit="10"/></g><g transform="translate(-38,-22) scale(1,1)"><g><path fill="none" stroke="none"/><text fill="#000000" stroke="none" font-family="Arial" font-size="13px" font-style="normal" font-weight="bold" text-decoration="none" x="502.175048828125" y="456">Delete comment</text></g></g><g transform="translate(-38,-22) scale(1,1)"><path fill="none" stroke="#000000" d="M 547 431 L 538 355" stroke-miterlimit="10" stroke-dasharray="3"/></g><g transform="translate(-38,-22) scale(1,1)"><path fill="none" stroke="#000000" d="M 543.3754323227236 364.5971207840591 L 538 355 L 535.0148154609326 365.5871938334817" stroke-miterlimit="10"/></g><g transform="translate(-38,-22) scale(1,1)"><g><path fill="none" stroke="none"/><text fill="#000000" stroke="none" font-family="Arial" font-size="13px" font-style="normal" font-weight="normal" text-decoration="none" x="552" y="406">«extend»</text></g></g><g transform="translate(-38,-22) scale(1,1)"><path fill="#ffffff" stroke="none" d="M 1368.4093503196023 721.6800000000001 C 1368.4093503196023 716.8861679360001 1372.2951926445478 713 1377.088623046875 713 C 1381.8820534492022 713 1385.7678957741477 716.8861679360001 1385.7678957741477 721.6800000000001 C 1385.7678957741477 726.473832064 1381.8820534492022 730.36 1377.088623046875 730.36 C 1372.2951926445478 730.36 1368.4093503196023 726.473832064 1368.4093503196023 721.6800000000001 Z"/></g><g transform="translate(-38,-22) scale(1,1)"><path fill="none" stroke="#000000" d="M 1368.4093503196023 721.6800000000001 C 1368.4093503196023 716.8861679360001 1372.2951926445478 713 1377.088623046875 713 C 1381.8820534492022 713 1385.7678957741477 716.8861679360001 1385.7678957741477 721.6800000000001 C 1385.7678957741477 726.473832064 1381.8820534492022 730.36 1377.088623046875 730.36 C 1372.2951926445478 730.36 1368.4093503196023 726.473832064 1368.4093503196023 721.6800000000001 Z" stroke-miterlimit="10"/></g><g transform="translate(-38,-22) scale(1,1)"><path fill="none" stroke="#000000" d="M 1377.088623046875 730.36 L 1377.088623046875 747.64" stroke-miterlimit="10"/></g><g transform="translate(-38,-22) scale(1,1)"><path fill="none" stroke="#000000" d="M 1367.8988048650567 736.84 L 1386.2784412286933 736.84" stroke-miterlimit="10"/></g><g transform="translate(-38,-22) scale(1,1)"><path fill="none" stroke="#000000" d="M 1377.088623046875 747.64 L 1364.3249866832386 765" stroke-miterlimit="10"/></g><g transform="translate(-38,-22) scale(1,1)"><path fill="none" stroke="#000000" d="M 1377.088623046875 747.64 L 1389.8522594105114 765" stroke-miterlimit="10"/></g><g transform="translate(-38,-22) scale(1,1)"><g><path fill="none" stroke="none"/><text fill="#000000" stroke="none" font-family="Arial" font-size="13px" font-style="normal" font-weight="bold" text-decoration="none" x="1358.66455078125" y="785.5">Admin</text></g></g><g transform="translate(-38,-22) scale(1,1)"><path fill="#C0C0C0" stroke="none" d="M 879 896 C 879 886.6111584 911.2354944 879 951 879 C 990.7645056 879 1023 886.6111584 1023 896 C 1023 905.3888416 990.7645056 913 951 913 C 911.2354944 913 879 905.3888416 879 896 Z" opacity="0.2"/></g><g transform="translate(-38,-22) scale(1,1)"><path fill="#ffffff" stroke="none" d="M 872 889 C 872 879.6111584 904.2354944 872 944 872 C 983.7645056 872 1016 879.6111584 1016 889 C 1016 898.3888416 983.7645056 906 944 906 C 904.2354944 906 872 898.3888416 872 889 Z"/></g><g transform="translate(-38,-22) scale(1,1)"><path fill="none" stroke="#000000" d="M 872 889 C 872 879.6111584 904.2354944 872 944 872 C 983.7645056 872 1016 879.6111584 1016 889 C 1016 898.3888416 983.7645056 906 944 906 C 904.2354944 906 872 898.3888416 872 889 Z" stroke-miterlimit="10"/></g><g transform="translate(-38,-22) scale(1,1)"><g><path fill="none" stroke="none"/><text fill="#000000" stroke="none" font-family="Arial" font-size="13px" font-style="normal" font-weight="bold" text-decoration="none" x="900.65185546875" y="896">Review reports</text></g></g><g transform="translate(-38,-22) scale(1,1)"><path fill="#C0C0C0" stroke="none" d="M 711 424 C 711 414.6111584 733.6096176 407 761.5 407 C 789.3903824 407 812 414.6111584 812 424 C 812 433.3888416 789.3903824 441 761.5 441 C 733.6096176 441 711 433.3888416 711 424 Z" opacity="0.2"/></g><g transform="translate(-38,-22) scale(1,1)"><path fill="#ffffff" stroke="none" d="M 704 417 C 704 407.6111584 726.6096176 400 754.5 400 C 782.3903824 400 805 407.6111584 805 417 C 805 426.3888416 782.3903824 434 754.5 434 C 726.6096176 434 704 426.3888416 704 417 Z"/></g><g transform="translate(-38,-22) scale(1,1)"><path fill="none" stroke="#000000" d="M 704 417 C 704 407.6111584 726.6096176 400 754.5 400 C 782.3903824 400 805 407.6111584 805 417 C 805 426.3888416 782.3903824 434 754.5 434 C 726.6096176 434 704 426.3888416 704 417 Z" stroke-miterlimit="10"/></g><g transform="translate(-38,-22) scale(1,1)"><g><path fill="none" stroke="none"/><text fill="#000000" stroke="none" font-family="Arial" font-size="13px" font-style="normal" font-weight="bold" text-decoration="none" x="734.990478515625" y="424">Report</text></g></g><g transform="translate(-38,-22) scale(1,1)"><path fill="none" stroke="#000000" d="M 108 736 L 718 435" stroke-miterlimit="10"/></g><g transform="translate(-38,-22) scale(1,1)"><path fill="none" stroke="#000000" d="M 743 399 L 654 259" stroke-miterlimit="10" stroke-dasharray="3"/></g><g transform="translate(-38,-22) scale(1,1)"><path fill="none" stroke="#000000" d="M 663.0045790825714 265.31803415199045 L 654 259 L 655.8996741383761 269.8347237236574" stroke-miterlimit="10"/></g><g transform="translate(-38,-22) scale(1,1)"><g><path fill="none" stroke="none"/><text fill="#000000" stroke="none" font-family="Arial" font-size="13px" font-style="normal" font-weight="normal" text-decoration="none" x="712" y="348">«extend»</text></g></g><g transform="translate(-38,-22) scale(1,1)"><path fill="#C0C0C0" stroke="none" d="M 975 976 C 975 966.6111584 1017.9806592 959 1071 959 C 1124.0193408 959 1167 966.6111584 1167 976 C 1167 985.3888416 1124.0193408 993 1071 993 C 1017.9806592 993 975 985.3888416 975 976 Z" opacity="0.2"/></g><g transform="translate(-38,-22) scale(1,1)"><path fill="#ffffff" stroke="none" d="M 968 969 C 968 959.6111584 1010.9806592 952 1064 952 C 1117.0193408 952 1160 959.6111584 1160 969 C 1160 978.3888416 1117.0193408 986 1064 986 C 1010.9806592 986 968 978.3888416 968 969 Z"/></g><g transform="translate(-38,-22) scale(1,1)"><path fill="none" stroke="#000000" d="M 968 969 C 968 959.6111584 1010.9806592 952 1064 952 C 1117.0193408 952 1160 959.6111584 1160 969 C 1160 978.3888416 1117.0193408 986 1064 986 C 1010.9806592 986 968 978.3888416 968 969 Z" stroke-miterlimit="10"/></g><g transform="translate(-38,-22) scale(1,1)"><g><path fill="none" stroke="none"/><text fill="#000000" stroke="none" font-family="Arial" font-size="13px" font-style="normal" font-weight="bold" text-decoration="none" x="1005.465087890625" y="976">Delete violation post</text></g></g><g transform="translate(-38,-22) scale(1,1)"><path fill="none" stroke="#000000" d="M 1037 951 L 971 907" stroke-miterlimit="10" stroke-dasharray="3"/></g><g transform="translate(-38,-22) scale(1,1)"><path fill="none" stroke="#000000" d="M 981.7908769318217 909.1347072497838 L 971 907 L 977.1208362812703 916.1397682256109" stroke-miterlimit="10"/></g><g transform="translate(-38,-22) scale(1,1)"><g><path fill="none" stroke="none"/><text fill="#000000" stroke="none" font-family="Arial" font-size="13px" font-style="normal" font-weight="normal" text-decoration="none" x="952" y="949">«extend»</text></g></g><g transform="translate(-38,-22) scale(1,1)"><path fill="#C0C0C0" stroke="none" d="M 887 688 C 887 678.6111584 914.5344848 671 948.5 671 C 982.4655152 671 1010 678.6111584 1010 688 C 1010 697.3888416 982.4655152 705 948.5 705 C 914.5344848 705 887 697.3888416 887 688 Z" opacity="0.2"/></g><g transform="translate(-38,-22) scale(1,1)"><path fill="#ffffff" stroke="none" d="M 880 681 C 880 671.6111584 907.5344848 664 941.5 664 C 975.4655152 664 1003 671.6111584 1003 681 C 1003 690.3888416 975.4655152 698 941.5 698 C 907.5344848 698 880 690.3888416 880 681 Z"/></g><g transform="translate(-38,-22) scale(1,1)"><path fill="none" stroke="#000000" d="M 880 681 C 880 671.6111584 907.5344848 664 941.5 664 C 975.4655152 664 1003 671.6111584 1003 681 C 1003 690.3888416 975.4655152 698 941.5 698 C 907.5344848 698 880 690.3888416 880 681 Z" stroke-miterlimit="10"/></g><g transform="translate(-38,-22) scale(1,1)"><g><path fill="none" stroke="none"/><text fill="#000000" stroke="none" font-family="Arial" font-size="13px" font-style="normal" font-weight="bold" text-decoration="none" x="905.36279296875" y="688">Ban account</text></g></g><g transform="translate(-38,-22) scale(1,1)"><path fill="none" stroke="#000000" d="M 941 699 L 944 871" stroke-miterlimit="10" stroke-dasharray="3"/></g><g transform="translate(-38,-22) scale(1,1)"><path fill="none" stroke="#000000" d="M 939.6138934038086 860.9122812823292 L 944 871 L 948.0316485947935 860.7654599708585" stroke-miterlimit="10"/></g><g transform="translate(-38,-22) scale(1,1)"><g><path fill="none" stroke="none"/><text fill="#000000" stroke="none" font-family="Arial" font-size="13px" font-style="normal" font-weight="normal" text-decoration="none" x="888" y="772">«extend»</text></g></g><g transform="translate(-38,-22) scale(1,1)"><path fill="#C0C0C0" stroke="none" d="M 567 688 C 567 678.6111584 600.1309248 671 641 671 C 681.8690752 671 715 678.6111584 715 688 C 715 697.3888416 681.8690752 705 641 705 C 600.1309248 705 567 697.3888416 567 688 Z" opacity="0.2"/></g><g transform="translate(-38,-22) scale(1,1)"><path fill="#ffffff" stroke="none" d="M 560 681 C 560 671.6111584 593.1309248 664 634 664 C 674.8690752 664 708 671.6111584 708 681 C 708 690.3888416 674.8690752 698 634 698 C 593.1309248 698 560 690.3888416 560 681 Z"/></g><g transform="translate(-38,-22) scale(1,1)"><path fill="none" stroke="#000000" d="M 560 681 C 560 671.6111584 593.1309248 664 634 664 C 674.8690752 664 708 671.6111584 708 681 C 708 690.3888416 674.8690752 698 634 698 C 593.1309248 698 560 690.3888416 560 681 Z" stroke-miterlimit="10"/></g><g transform="translate(-38,-22) scale(1,1)"><g><path fill="none" stroke="none"/><text fill="#000000" stroke="none" font-family="Arial" font-size="13px" font-style="normal" font-weight="bold" text-decoration="none" x="589.5537109375" y="688">Unban Account</text></g></g><g transform="translate(-38,-22) scale(1,1)"><path fill="#C0C0C0" stroke="none" d="M 535 592 C 535 582.6111584 570.5933583999999 575 614.5 575 C 658.4066416000001 575 694 582.6111584 694 592 C 694 601.3888416 658.4066416000001 609 614.5 609 C 570.5933583999999 609 535 601.3888416 535 592 Z" opacity="0.2"/></g><g transform="translate(-38,-22) scale(1,1)"><path fill="#ffffff" stroke="none" d="M 528 585 C 528 575.6111584 563.5933583999999 568 607.5 568 C 651.4066416000001 568 687 575.6111584 687 585 C 687 594.3888416 651.4066416000001 602 607.5 602 C 563.5933583999999 602 528 594.3888416 528 585 Z"/></g><g transform="translate(-38,-22) scale(1,1)"><path fill="none" stroke="#000000" d="M 528 585 C 528 575.6111584 563.5933583999999 568 607.5 568 C 651.4066416000001 568 687 575.6111584 687 585 C 687 594.3888416 651.4066416000001 602 607.5 602 C 563.5933583999999 602 528 594.3888416 528 585 Z" stroke-miterlimit="10"/></g><g transform="translate(-38,-22) scale(1,1)"><g><path fill="none" stroke="none"/><text fill="#000000" stroke="none" font-family="Arial" font-size="13px" font-style="normal" font-weight="bold" text-decoration="none" x="559.451416015625" y="592">Set mod for user</text></g></g><g transform="translate(-38,-22) scale(1,1)"><path fill="#C0C0C0" stroke="none" d="M 863 424 C 863 414.6111584 887.1766208 407 917 407 C 946.8233792 407 971 414.6111584 971 424 C 971 433.3888416 946.8233792 441 917 441 C 887.1766208 441 863 433.3888416 863 424 Z" opacity="0.2"/></g><g transform="translate(-38,-22) scale(1,1)"><path fill="#ffffff" stroke="none" d="M 856 417 C 856 407.6111584 880.1766208 400 910 400 C 939.8233792 400 964 407.6111584 964 417 C 964 426.3888416 939.8233792 434 910 434 C 880.1766208 434 856 426.3888416 856 417 Z"/></g><g transform="translate(-38,-22) scale(1,1)"><path fill="none" stroke="#000000" d="M 856 417 C 856 407.6111584 880.1766208 400 910 400 C 939.8233792 400 964 407.6111584 964 417 C 964 426.3888416 939.8233792 434 910 434 C 880.1766208 434 856 426.3888416 856 417 Z" stroke-miterlimit="10"/></g><g transform="translate(-38,-22) scale(1,1)"><g><path fill="none" stroke="none"/><text fill="#000000" stroke="none" font-family="Arial" font-size="13px" font-style="normal" font-weight="bold" text-decoration="none" x="878.569580078125" y="424">Unset mod</text></g></g><g transform="translate(-38,-22) scale(1,1)"><path fill="#ffffff" stroke="none" d="M 1366.8597897727273 233.68 C 1366.8597897727273 228.886167936 1370.7456320976728 225 1375.5390625 225 C 1380.3324929023272 225 1384.2183352272727 228.886167936 1384.2183352272727 233.68 C 1384.2183352272727 238.47383206400002 1380.3324929023272 242.36 1375.5390625 242.36 C 1370.7456320976728 242.36 1366.8597897727273 238.47383206400002 1366.8597897727273 233.68 Z"/></g><g transform="translate(-38,-22) scale(1,1)"><path fill="none" stroke="#000000" d="M 1366.8597897727273 233.68 C 1366.8597897727273 228.886167936 1370.7456320976728 225 1375.5390625 225 C 1380.3324929023272 225 1384.2183352272727 228.886167936 1384.2183352272727 233.68 C 1384.2183352272727 238.47383206400002 1380.3324929023272 242.36 1375.5390625 242.36 C 1370.7456320976728 242.36 1366.8597897727273 238.47383206400002 1366.8597897727273 233.68 Z" stroke-miterlimit="10"/></g><g transform="translate(-38,-22) scale(1,1)"><path fill="none" stroke="#000000" d="M 1375.5390625 242.36 L 1375.5390625 259.64" stroke-miterlimit="10"/></g><g transform="translate(-38,-22) scale(1,1)"><path fill="none" stroke="#000000" d="M 1366.3492443181817 248.84 L 1384.7288806818183 248.84" stroke-miterlimit="10"/></g><g transform="translate(-38,-22) scale(1,1)"><path fill="none" stroke="#000000" d="M 1375.5390625 259.64 L 1362.7754261363636 277" stroke-miterlimit="10"/></g><g transform="translate(-38,-22) scale(1,1)"><path fill="none" stroke="#000000" d="M 1375.5390625 259.64 L 1388.3026988636364 277" stroke-miterlimit="10"/></g><g transform="translate(-38,-22) scale(1,1)"><g><path fill="none" stroke="none"/><text fill="#000000" stroke="none" font-family="Arial" font-size="13px" font-style="normal" font-weight="bold" text-decoration="none" x="1342.30908203125" y="297.5">Webmaster</text></g></g><g transform="translate(-38,-22) scale(1,1)"><path fill="#C0C0C0" stroke="none" d="M 1071 480 C 1071 470.6111584 1109.5035072 463 1157 463 C 1204.4964928 463 1243 470.6111584 1243 480 C 1243 489.3888416 1204.4964928 497 1157 497 C 1109.5035072 497 1071 489.3888416 1071 480 Z" opacity="0.2"/></g><g transform="translate(-38,-22) scale(1,1)"><path fill="#ffffff" stroke="none" d="M 1064 473 C 1064 463.6111584 1102.5035072 456 1150 456 C 1197.4964928 456 1236 463.6111584 1236 473 C 1236 482.3888416 1197.4964928 490 1150 490 C 1102.5035072 490 1064 482.3888416 1064 473 Z"/></g><g transform="translate(-38,-22) scale(1,1)"><path fill="none" stroke="#000000" d="M 1064 473 C 1064 463.6111584 1102.5035072 456 1150 456 C 1197.4964928 456 1236 463.6111584 1236 473 C 1236 482.3888416 1197.4964928 490 1150 490 C 1102.5035072 490 1064 482.3888416 1064 473 Z" stroke-miterlimit="10"/></g><g transform="translate(-38,-22) scale(1,1)"><g><path fill="none" stroke="none"/><text fill="#000000" stroke="none" font-family="Arial" font-size="13px" font-style="normal" font-weight="bold" text-decoration="none" x="1098.339599609375" y="480">View accounts list</text></g></g><g transform="translate(-38,-22) scale(1,1)"><path fill="none" stroke="#000000" d="M 1351 719 L 1165 491" stroke-miterlimit="10"/></g><g transform="translate(-38,-22) scale(1,1)"><path fill="none" stroke="#000000" d="M 688 568 L 1063 491" stroke-miterlimit="10" stroke-dasharray="3"/></g><g transform="translate(-38,-22) scale(1,1)"><path fill="none" stroke="#000000" d="M 1053.8917080387032 497.167577932039 L 1063 491 L 1052.1983288098988 488.9206011683814" stroke-miterlimit="10"/></g><g transform="translate(-38,-22) scale(1,1)"><g><path fill="none" stroke="none"/><text fill="#000000" stroke="none" font-family="Arial" font-size="13px" font-style="normal" font-weight="normal" text-decoration="none" x="832" y="524">«extend»</text></g></g><g transform="translate(-38,-22) scale(1,1)"><path fill="none" stroke="#000000" d="M 965 430 L 1073 455" stroke-miterlimit="10" stroke-dasharray="3"/></g><g transform="translate(-38,-22) scale(1,1)"><path fill="none" stroke="#000000" d="M 1062.1498032642887 456.8092072286951 L 1073 455 L 1064.0484496109884 448.6070550109525" stroke-miterlimit="10"/></g><g transform="translate(-38,-22) scale(1,1)"><g><path fill="none" stroke="none"/><text fill="#000000" stroke="none" font-family="Arial" font-size="13px" font-style="normal" font-weight="normal" text-decoration="none" x="979" y="461">«extend»</text></g></g><g transform="translate(-38,-22) scale(1,1)"><path fill="none" stroke="#000000" d="M 1351 777 L 1248 880 L 1017 887" stroke-miterlimit="10"/></g><g transform="translate(-38,-22) scale(1,1)"><path fill="#C0C0C0" stroke="none" d="M 871 264 C 871 254.6111584 910.8466528 247 960 247 C 1009.1533472 247 1049 254.6111584 1049 264 C 1049 273.3888416 1009.1533472 281 960 281 C 910.8466528 281 871 273.3888416 871 264 Z" opacity="0.2"/></g><g transform="translate(-38,-22) scale(1,1)"><path fill="#ffffff" stroke="none" d="M 864 257 C 864 247.6111584 903.8466528 240 953 240 C 1002.1533472 240 1042 247.6111584 1042 257 C 1042 266.3888416 1002.1533472 274 953 274 C 903.8466528 274 864 266.3888416 864 257 Z"/></g><g transform="translate(-38,-22) scale(1,1)"><path fill="none" stroke="#000000" d="M 864 257 C 864 247.6111584 903.8466528 240 953 240 C 1002.1533472 240 1042 247.6111584 1042 257 C 1042 266.3888416 1002.1533472 274 953 274 C 903.8466528 274 864 266.3888416 864 257 Z" stroke-miterlimit="10"/></g><g transform="translate(-38,-22) scale(1,1)"><g><path fill="none" stroke="none"/><text fill="#000000" stroke="none" font-family="Arial" font-size="13px" font-style="normal" font-weight="bold" text-decoration="none" x="897.715087890625" y="264">Manage categories</text></g></g><g transform="translate(-38,-22) scale(1,1)"><path fill="none" stroke="#000000" d="M 1335 262 L 1043 258" stroke-miterlimit="10"/></g><g transform="translate(-38,-22) scale(1,1)"><path fill="#C0C0C0" stroke="none" d="M 823 352 C 823 342.6111584 847.8481936 335 878.5 335 C 909.1518064 335 934 342.6111584 934 352 C 934 361.3888416 909.1518064 369 878.5 369 C 847.8481936 369 823 361.3888416 823 352 Z" opacity="0.2"/></g><g transform="translate(-38,-22) scale(1,1)"><path fill="#ffffff" stroke="none" d="M 816 345 C 816 335.6111584 840.8481936 328 871.5 328 C 902.1518064 328 927 335.6111584 927 345 C 927 354.3888416 902.1518064 362 871.5 362 C 840.8481936 362 816 354.3888416 816 345 Z"/></g><g transform="translate(-38,-22) scale(1,1)"><path fill="none" stroke="#000000" d="M 816 345 C 816 335.6111584 840.8481936 328 871.5 328 C 902.1518064 328 927 335.6111584 927 345 C 927 354.3888416 902.1518064 362 871.5 362 C 840.8481936 362 816 354.3888416 816 345 Z" stroke-miterlimit="10"/></g><g transform="translate(-38,-22) scale(1,1)"><g><path fill="none" stroke="none"/><text fill="#000000" stroke="none" font-family="Arial" font-size="13px" font-style="normal" font-weight="bold" text-decoration="none" x="838.260498046875" y="352">Create new</text></g></g><g transform="translate(-38,-22) scale(1,1)"><path fill="#C0C0C0" stroke="none" d="M 591 104 C 591 94.6111584 613.6096176 87 641.5 87 C 669.3903824 87 692 94.6111584 692 104 C 692 113.3888416 669.3903824 121 641.5 121 C 613.6096176 121 591 113.3888416 591 104 Z" opacity="0.2"/></g><g transform="translate(-38,-22) scale(1,1)"><path fill="#ffffff" stroke="none" d="M 584 97 C 584 87.6111584 606.6096176 80 634.5 80 C 662.3903824 80 685 87.6111584 685 97 C 685 106.3888416 662.3903824 114 634.5 114 C 606.6096176 114 584 106.3888416 584 97 Z"/></g><g transform="translate(-38,-22) scale(1,1)"><path fill="none" stroke="#000000" d="M 584 97 C 584 87.6111584 606.6096176 80 634.5 80 C 662.3903824 80 685 87.6111584 685 97 C 685 106.3888416 662.3903824 114 634.5 114 C 606.6096176 114 584 106.3888416 584 97 Z" stroke-miterlimit="10"/></g><g transform="translate(-38,-22) scale(1,1)"><g><path fill="none" stroke="none"/><text fill="#000000" stroke="none" font-family="Arial" font-size="13px" font-style="normal" font-weight="bold" text-decoration="none" x="613.5400390625" y="104">Update</text></g></g><g transform="translate(-38,-22) scale(1,1)"><path fill="#C0C0C0" stroke="none" d="M 727 248 C 727 238.6111584 749.6096176 231 777.5 231 C 805.3903824 231 828 238.6111584 828 248 C 828 257.3888416 805.3903824 265 777.5 265 C 749.6096176 265 727 257.3888416 727 248 Z" opacity="0.2"/></g><g transform="translate(-38,-22) scale(1,1)"><path fill="#ffffff" stroke="none" d="M 720 241 C 720 231.6111584 742.6096176 224 770.5 224 C 798.3903824 224 821 231.6111584 821 241 C 821 250.3888416 798.3903824 258 770.5 258 C 742.6096176 258 720 250.3888416 720 241 Z"/></g><g transform="translate(-38,-22) scale(1,1)"><path fill="none" stroke="#000000" d="M 720 241 C 720 231.6111584 742.6096176 224 770.5 224 C 798.3903824 224 821 231.6111584 821 241 C 821 250.3888416 798.3903824 258 770.5 258 C 742.6096176 258 720 250.3888416 720 241 Z" stroke-miterlimit="10"/></g><g transform="translate(-38,-22) scale(1,1)"><g><path fill="none" stroke="none"/><text fill="#000000" stroke="none" font-family="Arial" font-size="13px" font-style="normal" font-weight="bold" text-decoration="none" x="751.7109375" y="248">Delete</text></g></g><g transform="translate(-38,-22) scale(1,1)"><path fill="none" stroke="#000000" d="M 888 327 L 936 275" stroke-miterlimit="10" stroke-dasharray="3"/></g><g transform="translate(-38,-22) scale(1,1)"><path fill="none" stroke="#000000" d="M 932.2000280008691 285.32280062801857 L 936 275 L 926.0136917061868 279.6123363560042" stroke-miterlimit="10"/></g><g transform="translate(-38,-22) scale(1,1)"><g><path fill="none" stroke="none"/><text fill="#000000" stroke="none" font-family="Arial" font-size="13px" font-style="normal" font-weight="normal" text-decoration="none" x="912" y="316">«extend»</text></g></g><g transform="translate(-38,-22) scale(1,1)"><path fill="none" stroke="#000000" d="M 670 115 L 917 239" stroke-miterlimit="10" stroke-dasharray="3"/></g><g transform="translate(-38,-22) scale(1,1)"><path fill="none" stroke="#000000" d="M 906.0289498445972 238.20246724980458 L 917 239 L 909.8062368542584 230.67835522249536" stroke-miterlimit="10"/></g><g transform="translate(-38,-22) scale(1,1)"><g><path fill="none" stroke="none"/><text fill="#000000" stroke="none" font-family="Arial" font-size="13px" font-style="normal" font-weight="normal" text-decoration="none" x="785" y="175">«extend»</text></g></g><g transform="translate(-38,-22) scale(1,1)"><path fill="none" stroke="#000000" d="M 822 246 L 863 249" stroke-miterlimit="10" stroke-dasharray="3"/></g><g transform="translate(-38,-22) scale(1,1)"><path fill="none" stroke="#000000" d="M 852.5572293973661 252.4566663334441 L 863 249 L 853.1716138878245 244.06007829717961" stroke-miterlimit="10"/></g><g transform="translate(-38,-22) scale(1,1)"><g><path fill="none" stroke="none"/><text fill="#000000" stroke="none" font-family="Arial" font-size="13px" font-style="normal" font-weight="normal" text-decoration="none" x="824" y="245">«extend»</text></g></g><g transform="translate(-38,-22) scale(1,1)"><path fill="#C0C0C0" stroke="none" d="M 959 184 C 959 174.6111584 1008.4725296 167 1069.5 167 C 1130.5274704 167 1180 174.6111584 1180 184 C 1180 193.3888416 1130.5274704 201 1069.5 201 C 1008.4725296 201 959 193.3888416 959 184 Z" opacity="0.2"/></g><g transform="translate(-38,-22) scale(1,1)"><path fill="#ffffff" stroke="none" d="M 952 177 C 952 167.6111584 1001.4725296 160 1062.5 160 C 1123.5274704 160 1173 167.6111584 1173 177 C 1173 186.3888416 1123.5274704 194 1062.5 194 C 1001.4725296 194 952 186.3888416 952 177 Z"/></g><g transform="translate(-38,-22) scale(1,1)"><path fill="none" stroke="#000000" d="M 952 177 C 952 167.6111584 1001.4725296 160 1062.5 160 C 1123.5274704 160 1173 167.6111584 1173 177 C 1173 186.3888416 1123.5274704 194 1062.5 194 C 1001.4725296 194 952 186.3888416 952 177 Z" stroke-miterlimit="10"/></g><g transform="translate(-38,-22) scale(1,1)"><g><path fill="none" stroke="none"/><text fill="#000000" stroke="none" font-family="Arial" font-size="13px" font-style="normal" font-weight="bold" text-decoration="none" x="993.129638671875" y="184">Manage advertisements</text></g></g><g transform="translate(-38,-22) scale(1,1)"><path fill="#C0C0C0" stroke="none" d="M 999 104 C 999 94.6111584 1021.6096176 87 1049.5 87 C 1077.3903824 87 1100 94.6111584 1100 104 C 1100 113.3888416 1077.3903824 121 1049.5 121 C 1021.6096176 121 999 113.3888416 999 104 Z" opacity="0.2"/></g><g transform="translate(-38,-22) scale(1,1)"><path fill="#ffffff" stroke="none" d="M 992 97 C 992 87.6111584 1014.6096176 80 1042.5 80 C 1070.3903824 80 1093 87.6111584 1093 97 C 1093 106.3888416 1070.3903824 114 1042.5 114 C 1014.6096176 114 992 106.3888416 992 97 Z"/></g><g transform="translate(-38,-22) scale(1,1)"><path fill="none" stroke="#000000" d="M 992 97 C 992 87.6111584 1014.6096176 80 1042.5 80 C 1070.3903824 80 1093 87.6111584 1093 97 C 1093 106.3888416 1070.3903824 114 1042.5 114 C 1014.6096176 114 992 106.3888416 992 97 Z" stroke-miterlimit="10"/></g><g transform="translate(-38,-22) scale(1,1)"><g><path fill="none" stroke="none"/><text fill="#000000" stroke="none" font-family="Arial" font-size="13px" font-style="normal" font-weight="bold" text-decoration="none" x="1016.845947265625" y="104">Hide ads</text></g></g><g transform="translate(-38,-22) scale(1,1)"><path fill="#C0C0C0" stroke="none" d="M 775 104 C 775 94.6111584 801.4151968 87 834 87 C 866.5848032 87 893 94.6111584 893 104 C 893 113.3888416 866.5848032 121 834 121 C 801.4151968 121 775 113.3888416 775 104 Z" opacity="0.2"/></g><g transform="translate(-38,-22) scale(1,1)"><path fill="#ffffff" stroke="none" d="M 768 97 C 768 87.6111584 794.4151968 80 827 80 C 859.5848032 80 886 87.6111584 886 97 C 886 106.3888416 859.5848032 114 827 114 C 794.4151968 114 768 106.3888416 768 97 Z"/></g><g transform="translate(-38,-22) scale(1,1)"><path fill="none" stroke="#000000" d="M 768 97 C 768 87.6111584 794.4151968 80 827 80 C 859.5848032 80 886 87.6111584 886 97 C 886 106.3888416 859.5848032 114 827 114 C 794.4151968 114 768 106.3888416 768 97 Z" stroke-miterlimit="10"/></g><g transform="translate(-38,-22) scale(1,1)"><g><path fill="none" stroke="none"/><text fill="#000000" stroke="none" font-family="Arial" font-size="13px" font-style="normal" font-weight="bold" text-decoration="none" x="791.945068359375" y="104">Change ads</text></g></g><g transform="translate(-38,-22) scale(1,1)"><path fill="#C0C0C0" stroke="none" d="M 1159 104 C 1159 94.6111584 1181.6096176 87 1209.5 87 C 1237.3903824 87 1260 94.6111584 1260 104 C 1260 113.3888416 1237.3903824 121 1209.5 121 C 1181.6096176 121 1159 113.3888416 1159 104 Z" opacity="0.2"/></g><g transform="translate(-38,-22) scale(1,1)"><path fill="#ffffff" stroke="none" d="M 1152 97 C 1152 87.6111584 1174.6096176 80 1202.5 80 C 1230.3903824 80 1253 87.6111584 1253 97 C 1253 106.3888416 1230.3903824 114 1202.5 114 C 1174.6096176 114 1152 106.3888416 1152 97 Z"/></g><g transform="translate(-38,-22) scale(1,1)"><path fill="none" stroke="#000000" d="M 1152 97 C 1152 87.6111584 1174.6096176 80 1202.5 80 C 1230.3903824 80 1253 87.6111584 1253 97 C 1253 106.3888416 1230.3903824 114 1202.5 114 C 1174.6096176 114 1152 106.3888416 1152 97 Z" stroke-miterlimit="10"/></g><g transform="translate(-38,-22) scale(1,1)"><g><path fill="none" stroke="none"/><text fill="#000000" stroke="none" font-family="Arial" font-size="13px" font-style="normal" font-weight="bold" text-decoration="none" x="1173.95458984375" y="104">Show ads</text></g></g><g transform="translate(-38,-22) scale(1,1)"><path fill="none" stroke="#000000" d="M 1335 252 L 1128 195" stroke-miterlimit="10"/></g><g transform="translate(-38,-22) scale(1,1)"><path fill="none" stroke="#000000" d="M 880 115 L 1009 159" stroke-miterlimit="10" stroke-dasharray="3"/></g><g transform="translate(-38,-22) scale(1,1)"><path fill="none" stroke="#000000" d="M 998.0225119283357 159.70338868093432 L 1009 159 L 1000.7403728380332 151.73511465023023" stroke-miterlimit="10"/></g><g transform="translate(-38,-22) scale(1,1)"><g><path fill="none" stroke="none"/><text fill="#000000" stroke="none" font-family="Arial" font-size="13px" font-style="normal" font-weight="normal" text-decoration="none" x="922" y="128">«extend»</text></g></g><g transform="translate(-38,-22) scale(1,1)"><path fill="none" stroke="#000000" d="M 1047 115 L 1058 159" stroke-miterlimit="10" stroke-dasharray="3"/></g><g transform="translate(-38,-22) scale(1,1)"><path fill="none" stroke="#000000" d="M 1051.4513572211376 150.16171522551727 L 1058 159 L 1059.6190213815926 148.1197991854035" stroke-miterlimit="10"/></g><g transform="translate(-38,-22) scale(1,1)"><g><path fill="none" stroke="none"/><text fill="#000000" stroke="none" font-family="Arial" font-size="13px" font-style="normal" font-weight="normal" text-decoration="none" x="1051" y="141">«extend»</text></g></g><g transform="translate(-38,-22) scale(1,1)"><path fill="none" stroke="#000000" d="M 1171 115 L 1094 159" stroke-miterlimit="10" stroke-dasharray="3"/></g><g transform="translate(-38,-22) scale(1,1)"><path fill="none" stroke="#000000" d="M 1100.7351670803089 150.30301636196063 L 1094 159 L 1104.9121784212368 157.61278620858468" stroke-miterlimit="10"/></g><g transform="translate(-38,-22) scale(1,1)"><g><path fill="none" stroke="none"/><text fill="#000000" stroke="none" font-family="Arial" font-size="13px" font-style="normal" font-weight="normal" text-decoration="none" x="1135" y="149">«extend»</text></g></g><g transform="translate(-38,-22) scale(1,1)"><path fill="#C0C0C0" stroke="none" d="M 575 176 C 575 166.6111584 605.220776 159 642.5 159 C 679.779224 159 710 166.6111584 710 176 C 710 185.3888416 679.779224 193 642.5 193 C 605.220776 193 575 185.3888416 575 176 Z" opacity="0.2"/></g><g transform="translate(-38,-22) scale(1,1)"><path fill="#ffffff" stroke="none" d="M 568 169 C 568 159.6111584 598.220776 152 635.5 152 C 672.779224 152 703 159.6111584 703 169 C 703 178.3888416 672.779224 186 635.5 186 C 598.220776 186 568 178.3888416 568 169 Z"/></g><g transform="translate(-38,-22) scale(1,1)"><path fill="none" stroke="#000000" d="M 568 169 C 568 159.6111584 598.220776 152 635.5 152 C 672.779224 152 703 159.6111584 703 169 C 703 178.3888416 672.779224 186 635.5 186 C 598.220776 186 568 178.3888416 568 169 Z" stroke-miterlimit="10"/></g><g transform="translate(-38,-22) scale(1,1)"><g><path fill="none" stroke="none"/><text fill="#000000" stroke="none" font-family="Arial" font-size="13px" font-style="normal" font-weight="bold" text-decoration="none" x="595.763671875" y="176">Filter and sort</text></g></g><g transform="translate(-38,-22) scale(1,1)"><path fill="none" stroke="#000000" d="M 567 187 L 427 223" stroke-miterlimit="10" stroke-dasharray="3"/></g><g transform="translate(-38,-22) scale(1,1)"><path fill="none" stroke="#000000" d="M 435.7941360968292 216.39218868985762 L 427 223 L 437.8908214549482 224.5459650825425" stroke-miterlimit="10"/></g><g transform="translate(-38,-22) scale(1,1)"><g><path fill="none" stroke="none"/><text fill="#000000" stroke="none" font-family="Arial" font-size="13px" font-style="normal" font-weight="normal" text-decoration="none" x="456" y="203">«extend»</text></g></g><g transform="translate(-38,-22) scale(1,1)"><path fill="none" stroke="#000000" d="M 570 767 L 393 707" stroke-miterlimit="10" stroke-dasharray="3"/></g><g transform="translate(-38,-22) scale(1,1)"><path fill="none" stroke="#000000" d="M 403.97614315566545 706.2759271954154 L 393 707 L 401.2733020468399 714.2493084664508" stroke-miterlimit="10"/></g><g transform="translate(-38,-22) scale(1,1)"><g><path fill="none" stroke="none"/><text fill="#000000" stroke="none" font-family="Arial" font-size="13px" font-style="normal" font-weight="normal" text-decoration="none" x="495" y="740">«extend»</text></g></g><g transform="translate(-38,-22) scale(1,1)"><path fill="#C0C0C0" stroke="none" d="M 175 872 C 175 862.6111584 204.5492032 855 241 855 C 277.4507968 855 307 862.6111584 307 872 C 307 881.3888416 277.4507968 889 241 889 C 204.5492032 889 175 881.3888416 175 872 Z" opacity="0.2"/></g><g transform="translate(-38,-22) scale(1,1)"><path fill="#ffffff" stroke="none" d="M 168 865 C 168 855.6111584 197.5492032 848 234 848 C 270.4507968 848 300 855.6111584 300 865 C 300 874.3888416 270.4507968 882 234 882 C 197.5492032 882 168 874.3888416 168 865 Z"/></g><g transform="translate(-38,-22) scale(1,1)"><path fill="none" stroke="#000000" d="M 168 865 C 168 855.6111584 197.5492032 848 234 848 C 270.4507968 848 300 855.6111584 300 865 C 300 874.3888416 270.4507968 882 234 882 C 197.5492032 882 168 874.3888416 168 865 Z" stroke-miterlimit="10"/></g><g transform="translate(-38,-22) scale(1,1)"><g><path fill="none" stroke="none"/><text fill="#000000" stroke="none" font-family="Arial" font-size="13px" font-style="normal" font-weight="bold" text-decoration="none" x="193.892333984375" y="872">Change email</text></g></g><g transform="translate(-38,-22) scale(1,1)"><path fill="none" stroke="#000000" d="M 231 883 L 223 943" stroke-miterlimit="10" stroke-dasharray="3"/></g><g transform="translate(-38,-22) scale(1,1)"><path fill="none" stroke="#000000" d="M 220.17054546707706 932.3701276091327 L 223 943 L 228.51572836344107 933.4828186619812" stroke-miterlimit="10"/></g><g transform="translate(-38,-22) scale(1,1)"><g><path fill="none" stroke="none"/><text fill="#000000" stroke="none" font-family="Arial" font-size="13px" font-style="normal" font-weight="normal" text-decoration="none" x="232" y="909">«extend»</text></g></g><g transform="translate(-38,-22) scale(1,1)"><path fill="#C0C0C0" stroke="none" d="M 375 968 C 375 958.6111584 413.27964959999997 951 460.5 951 C 507.72035040000003 951 546 958.6111584 546 968 C 546 977.3888416 507.72035040000003 985 460.5 985 C 413.27964959999997 985 375 977.3888416 375 968 Z" opacity="0.2"/></g><g transform="translate(-38,-22) scale(1,1)"><path fill="#ffffff" stroke="none" d="M 368 961 C 368 951.6111584 406.27964959999997 944 453.5 944 C 500.72035040000003 944 539 951.6111584 539 961 C 539 970.3888416 500.72035040000003 978 453.5 978 C 406.27964959999997 978 368 970.3888416 368 961 Z"/></g><g transform="translate(-38,-22) scale(1,1)"><path fill="none" stroke="#000000" d="M 368 961 C 368 951.6111584 406.27964959999997 944 453.5 944 C 500.72035040000003 944 539 951.6111584 539 961 C 539 970.3888416 500.72035040000003 978 453.5 978 C 406.27964959999997 978 368 970.3888416 368 961 Z" stroke-miterlimit="10"/></g><g transform="translate(-38,-22) scale(1,1)"><g><path fill="none" stroke="none"/><text fill="#000000" stroke="none" font-family="Arial" font-size="13px" font-style="normal" font-weight="bold" text-decoration="none" x="401.1064453125" y="968">Change password</text></g></g><g transform="translate(-38,-22) scale(1,1)"><path fill="#C0C0C0" stroke="none" d="M 351 864 C 351 854.6111584 405.1735392 847 472 847 C 538.8264608 847 593 854.6111584 593 864 C 593 873.3888416 538.8264608 881 472 881 C 405.1735392 881 351 873.3888416 351 864 Z" opacity="0.2"/></g><g transform="translate(-38,-22) scale(1,1)"><path fill="#ffffff" stroke="none" d="M 344 857 C 344 847.6111584 398.1735392 840 465 840 C 531.8264608 840 586 847.6111584 586 857 C 586 866.3888416 531.8264608 874 465 874 C 398.1735392 874 344 866.3888416 344 857 Z"/></g><g transform="translate(-38,-22) scale(1,1)"><path fill="none" stroke="#000000" d="M 344 857 C 344 847.6111584 398.1735392 840 465 840 C 531.8264608 840 586 847.6111584 586 857 C 586 866.3888416 531.8264608 874 465 874 C 398.1735392 874 344 866.3888416 344 857 Z" stroke-miterlimit="10"/></g><g transform="translate(-38,-22) scale(1,1)"><g><path fill="none" stroke="none"/><text fill="#000000" stroke="none" font-family="Arial" font-size="13px" font-style="normal" font-weight="bold" text-decoration="none" x="390.58642578125" y="864">Confirm current password</text></g></g><g transform="translate(-38,-22) scale(1,1)"><path fill="none" stroke="#000000" d="M 301 863 L 343 861" stroke-miterlimit="10" stroke-dasharray="3"/></g><g transform="translate(-38,-22) scale(1,1)"><path fill="none" stroke="#000000" d="M 333.0490542316979 865.6881423097332 L 343 861 L 332.6486015496341 857.2786359863939" stroke-miterlimit="10"/></g><g transform="translate(-38,-22) scale(1,1)"><g><path fill="none" stroke="none"/><text fill="#000000" stroke="none" font-family="Arial" font-size="13px" font-style="normal" font-weight="normal" text-decoration="none" x="288" y="852">«include»</text></g></g><g transform="translate(-38,-22) scale(1,1)"><path fill="none" stroke="#000000" d="M 455 943 L 463 875" stroke-miterlimit="10" stroke-dasharray="3"/></g><g transform="translate(-38,-22) scale(1,1)"><path fill="none" stroke="#000000" d="M 465.9932654943085 885.5849119826563 L 463 875 L 457.63189528771824 884.6012213701163" stroke-miterlimit="10"/></g><g transform="translate(-38,-22) scale(1,1)"><g><path fill="none" stroke="none"/><text fill="#000000" stroke="none" font-family="Arial" font-size="13px" font-style="normal" font-weight="normal" text-decoration="none" x="402" y="912">«include»</text></g></g><g transform="translate(-38,-22) scale(1,1)"><path fill="none" stroke="#000000" d="M 367 961 L 289 961" stroke-miterlimit="10" stroke-dasharray="3"/></g><g transform="translate(-38,-22) scale(1,1)"><path fill="none" stroke="#000000" d="M 299.16267485762415 956.790482243984 L 289 961 L 299.16267485762415 965.209517756016" stroke-miterlimit="10"/></g><g transform="translate(-38,-22) scale(1,1)"><g><path fill="none" stroke="none"/><text fill="#000000" stroke="none" font-family="Arial" font-size="13px" font-style="normal" font-weight="normal" text-decoration="none" x="301" y="956">«extend»</text></g></g><g transform="translate(-38,-22) scale(1,1)"><path fill="#C0C0C0" stroke="none" d="M 743 792 C 743 782.6111584 765.6096176 775 793.5 775 C 821.3903824 775 844 782.6111584 844 792 C 844 801.3888416 821.3903824 809 793.5 809 C 765.6096176 809 743 801.3888416 743 792 Z" opacity="0.2"/></g><g transform="translate(-38,-22) scale(1,1)"><path fill="#ffffff" stroke="none" d="M 736 785 C 736 775.6111584 758.6096176 768 786.5 768 C 814.3903824 768 837 775.6111584 837 785 C 837 794.3888416 814.3903824 802 786.5 802 C 758.6096176 802 736 794.3888416 736 785 Z"/></g><g transform="translate(-38,-22) scale(1,1)"><path fill="none" stroke="#000000" d="M 736 785 C 736 775.6111584 758.6096176 768 786.5 768 C 814.3903824 768 837 775.6111584 837 785 C 837 794.3888416 814.3903824 802 786.5 802 C 758.6096176 802 736 794.3888416 736 785 Z" stroke-miterlimit="10"/></g><g transform="translate(-38,-22) scale(1,1)"><g><path fill="none" stroke="none"/><text fill="#000000" stroke="none" font-family="Arial" font-size="13px" font-style="normal" font-weight="bold" text-decoration="none" x="762.2900390625" y="792">Approve</text></g></g><g transform="translate(-38,-22) scale(1,1)"><path fill="none" stroke="#000000" d="M 787 803 L 793 943" stroke-miterlimit="10" stroke-dasharray="3"/></g><g transform="translate(-38,-22) scale(1,1)"><path fill="none" stroke="#000000" d="M 788.3591990406376 933.0268878249776 L 793 943 L 796.7705134199903 932.6664029230053" stroke-miterlimit="10"/></g><g transform="translate(-38,-22) scale(1,1)"><g><path fill="none" stroke="none"/><text fill="#000000" stroke="none" font-family="Arial" font-size="13px" font-style="normal" font-weight="normal" text-decoration="none" x="799" y="893">«include»</text></g></g><g transform="translate(-38,-22) scale(1,1)"><path fill="none" stroke="#000000" d="M 770 803 L 644 943" stroke-miterlimit="10" stroke-dasharray="3"/></g><g transform="translate(-38,-22) scale(1,1)"><path fill="none" stroke="#000000" d="M 647.6695611521266 932.6301243522015 L 644 943 L 653.9273809652669 938.2621621840278" stroke-miterlimit="10"/></g><g transform="translate(-38,-22) scale(1,1)"><g><path fill="none" stroke="none"/><text fill="#000000" stroke="none" font-family="Arial" font-size="13px" font-style="normal" font-weight="normal" text-decoration="none" x="689" y="909">«extend»</text></g></g><g transform="translate(-38,-22) scale(1,1)"><path fill="#C0C0C0" stroke="none" d="M 1143 760 C 1143 750.6111584 1175.0116368 743 1214.5 743 C 1253.9883632 743 1286 750.6111584 1286 760 C 1286 769.3888416 1253.9883632 777 1214.5 777 C 1175.0116368 777 1143 769.3888416 1143 760 Z" opacity="0.2"/></g><g transform="translate(-38,-22) scale(1,1)"><path fill="#ffffff" stroke="none" d="M 1136 753 C 1136 743.6111584 1168.0116368 736 1207.5 736 C 1246.9883632 736 1279 743.6111584 1279 753 C 1279 762.3888416 1246.9883632 770 1207.5 770 C 1168.0116368 770 1136 762.3888416 1136 753 Z"/></g><g transform="translate(-38,-22) scale(1,1)"><path fill="none" stroke="#000000" d="M 1136 753 C 1136 743.6111584 1168.0116368 736 1207.5 736 C 1246.9883632 736 1279 743.6111584 1279 753 C 1279 762.3888416 1246.9883632 770 1207.5 770 C 1168.0116368 770 1136 762.3888416 1136 753 Z" stroke-miterlimit="10"/></g><g transform="translate(-38,-22) scale(1,1)"><g><path fill="none" stroke="none"/><text fill="#000000" stroke="none" font-family="Arial" font-size="13px" font-style="normal" font-weight="bold" text-decoration="none" x="1164.13916015625" y="760">Delete account</text></g></g><g transform="translate(-38,-22) scale(1,1)"><path fill="#C0C0C0" stroke="none" d="M 1015 848 C 1015 838.6111584 1050.817216 831 1095 831 C 1139.182784 831 1175 838.6111584 1175 848 C 1175 857.3888416 1139.182784 865 1095 865 C 1050.817216 865 1015 857.3888416 1015 848 Z" opacity="0.2"/></g><g transform="translate(-38,-22) scale(1,1)"><path fill="#ffffff" stroke="none" d="M 1008 841 C 1008 831.6111584 1043.817216 824 1088 824 C 1132.182784 824 1168 831.6111584 1168 841 C 1168 850.3888416 1132.182784 858 1088 858 C 1043.817216 858 1008 850.3888416 1008 841 Z"/></g><g transform="translate(-38,-22) scale(1,1)"><path fill="none" stroke="#000000" d="M 1008 841 C 1008 831.6111584 1043.817216 824 1088 824 C 1132.182784 824 1168 831.6111584 1168 841 C 1168 850.3888416 1132.182784 858 1088 858 C 1043.817216 858 1008 850.3888416 1008 841 Z" stroke-miterlimit="10"/></g><g transform="translate(-38,-22) scale(1,1)"><g><path fill="none" stroke="none"/><text fill="#000000" stroke="none" font-family="Arial" font-size="13px" font-style="normal" font-weight="bold" text-decoration="none" x="1039.9482421875" y="848">Restore Account</text></g></g><g transform="translate(-38,-22) scale(1,1)"><path fill="none" stroke="#000000" d="M 1112 823 L 1183 771" stroke-miterlimit="10" stroke-dasharray="3"/></g><g transform="translate(-38,-22) scale(1,1)"><path fill="none" stroke="#000000" d="M 1177.2883802245342 780.4009254619164 L 1183 771 L 1172.3138167816585 773.6087330687593" stroke-miterlimit="10"/></g><g transform="translate(-38,-22) scale(1,1)"><g><path fill="none" stroke="none"/><text fill="#000000" stroke="none" font-family="Arial" font-size="13px" font-style="normal" font-weight="normal" text-decoration="none" x="1144" y="812">«include»</text></g></g><g transform="translate(-38,-22) scale(1,1)"><path fill="none" stroke="#000000" d="M 1091 823 L 1147 491" stroke-miterlimit="10" stroke-dasharray="3"/></g><g transform="translate(-38,-22) scale(1,1)"><path fill="none" stroke="#000000" d="M 1149.460574039532 501.72126743421603 L 1147 491 L 1141.1588076833161 500.32096949461334" stroke-miterlimit="10"/></g><g transform="translate(-38,-22) scale(1,1)"><g><path fill="none" stroke="none"/><text fill="#000000" stroke="none" font-family="Arial" font-size="13px" font-style="normal" font-weight="normal" text-decoration="none" x="1122" y="682">«extend»</text></g></g><g transform="translate(-38,-22) scale(1,1)"><path fill="none" stroke="#000000" d="M 1203 735 L 1154 491" stroke-miterlimit="10" stroke-dasharray="3"/></g><g transform="translate(-38,-22) scale(1,1)"><path fill="none" stroke="#000000" d="M 1160.1280367176075 500.1349420352651 L 1154 491 L 1151.8737968594985 501.79255577726246" stroke-miterlimit="10"/></g><g transform="translate(-38,-22) scale(1,1)"><g><path fill="none" stroke="none"/><text fill="#000000" stroke="none" font-family="Arial" font-size="13px" font-style="normal" font-weight="normal" text-decoration="none" x="1188" y="652">«extend»</text></g></g><g transform="translate(-38,-22) scale(1,1)"><path fill="#C0C0C0" stroke="none" d="M 983 736 C 983 726.6111584 1007.4004784 719 1037.5 719 C 1067.5995216000001 719 1092 726.6111584 1092 736 C 1092 745.3888416 1067.5995216000001 753 1037.5 753 C 1007.4004784 753 983 745.3888416 983 736 Z" opacity="0.2"/></g><g transform="translate(-38,-22) scale(1,1)"><path fill="#ffffff" stroke="none" d="M 976 729 C 976 719.6111584 1000.4004784 712 1030.5 712 C 1060.5995216000001 712 1085 719.6111584 1085 729 C 1085 738.3888416 1060.5995216000001 746 1030.5 746 C 1000.4004784 746 976 738.3888416 976 729 Z"/></g><g transform="translate(-38,-22) scale(1,1)"><path fill="none" stroke="#000000" d="M 976 729 C 976 719.6111584 1000.4004784 712 1030.5 712 C 1060.5995216000001 712 1085 719.6111584 1085 729 C 1085 738.3888416 1060.5995216000001 746 1030.5 746 C 1000.4004784 746 976 738.3888416 976 729 Z" stroke-miterlimit="10"/></g><g transform="translate(-38,-22) scale(1,1)"><g><path fill="none" stroke="none"/><text fill="#000000" stroke="none" font-family="Arial" font-size="13px" font-style="normal" font-weight="bold" text-decoration="none" x="999.7900390625" y="736">Edit profile</text></g></g><g transform="translate(-38,-22) scale(1,1)"><path fill="none" stroke="#000000" d="M 1038 711 L 1142 491" stroke-miterlimit="10" stroke-dasharray="3"/></g><g transform="translate(-38,-22) scale(1,1)"><path fill="none" stroke="#000000" d="M 1141.4623881713119 501.9868545781609 L 1142 491 L 1133.8509716541605 498.3887304064166" stroke-miterlimit="10"/></g><g transform="translate(-38,-22) scale(1,1)"><g><path fill="none" stroke="none"/><text fill="#000000" stroke="none" font-family="Arial" font-size="13px" font-style="normal" font-weight="normal" text-decoration="none" x="1018" y="629">«extend»</text></g></g><g transform="translate(-38,-22) scale(1,1)"><path fill="none" stroke="#000000" d="M 878 435 L 639 567" stroke-miterlimit="10" stroke-dasharray="3"/></g><g transform="translate(-38,-22) scale(1,1)"><path fill="none" stroke="#000000" d="M 645.8608861038828 558.4018466011853 L 639 567 L 649.9311916629881 565.77156651502" stroke-miterlimit="10"/></g><g transform="translate(-38,-22) scale(1,1)"><g><path fill="none" stroke="none"/><text fill="#000000" stroke="none" font-family="Arial" font-size="13px" font-style="normal" font-weight="normal" text-decoration="none" x="716" y="492">«include»</text></g></g><g transform="translate(-38,-22) scale(1,1)"><path fill="none" stroke="#000000" d="M 679 663 L 1105 491" stroke-miterlimit="10" stroke-dasharray="3"/></g><g transform="translate(-38,-22) scale(1,1)"><path fill="none" stroke="#000000" d="M 1097.1524531595983 498.7081780329531 L 1105 491 L 1094.0004414557786 490.9014513711671" stroke-miterlimit="10"/></g><g transform="translate(-38,-22) scale(1,1)"><g><path fill="none" stroke="none"/><text fill="#000000" stroke="none" font-family="Arial" font-size="13px" font-style="normal" font-weight="normal" text-decoration="none" x="846" y="601">«extend»</text></g></g><g transform="translate(-38,-22) scale(1,1)"><path fill="none" stroke="#000000" d="M 709 681 L 879 681" stroke-miterlimit="10" stroke-dasharray="3"/></g><g transform="translate(-38,-22) scale(1,1)"><path fill="none" stroke="#000000" d="M 868.8373251423759 685.209517756016 L 879 681 L 868.8373251423758 676.790482243984" stroke-miterlimit="10"/></g><g transform="translate(-38,-22) scale(1,1)"><g><path fill="none" stroke="none"/><text fill="#000000" stroke="none" font-family="Arial" font-size="13px" font-style="normal" font-weight="normal" text-decoration="none" x="767" y="658">«include»</text></g></g><g transform="translate(-38,-22) scale(1,1)"><path fill="none" stroke="#000000" d="M 959 663 L 1132 491" stroke-miterlimit="10" stroke-dasharray="3"/></g><g transform="translate(-38,-22) scale(1,1)"><path fill="none" stroke="#000000" d="M 1127.7610430223765 501.15043071706106 L 1132 491 L 1121.8251663839662 495.1800431679624" stroke-miterlimit="10"/></g><g transform="translate(-38,-22) scale(1,1)"><g><path fill="none" stroke="none"/><text fill="#000000" stroke="none" font-family="Arial" font-size="13px" font-style="normal" font-weight="normal" text-decoration="none" x="993" y="582">«extend»</text></g></g><g transform="translate(-38,-22) scale(1,1)"><path fill="#C0C0C0" stroke="none" d="M 1159 352 C 1159 342.6111584 1182.2811904 335 1211 335 C 1239.7188096 335 1263 342.6111584 1263 352 C 1263 361.3888416 1239.7188096 369 1211 369 C 1182.2811904 369 1159 361.3888416 1159 352 Z" opacity="0.2"/></g><g transform="translate(-38,-22) scale(1,1)"><path fill="#ffffff" stroke="none" d="M 1152 345 C 1152 335.6111584 1175.2811904 328 1204 328 C 1232.7188096 328 1256 335.6111584 1256 345 C 1256 354.3888416 1232.7188096 362 1204 362 C 1175.2811904 362 1152 354.3888416 1152 345 Z"/></g><g transform="translate(-38,-22) scale(1,1)"><path fill="none" stroke="#000000" d="M 1152 345 C 1152 335.6111584 1175.2811904 328 1204 328 C 1232.7188096 328 1256 335.6111584 1256 345 C 1256 354.3888416 1232.7188096 362 1204 362 C 1175.2811904 362 1152 354.3888416 1152 345 Z" stroke-miterlimit="10"/></g><g transform="translate(-38,-22) scale(1,1)"><g><path fill="none" stroke="none"/><text fill="#000000" stroke="none" font-family="Arial" font-size="13px" font-style="normal" font-weight="bold" text-decoration="none" x="1174.013671875" y="352">Set Admin</text></g></g><g transform="translate(-38,-22) scale(1,1)"><path fill="#C0C0C0" stroke="none" d="M 967 352 C 967 342.6111584 995.2060576 335 1030 335 C 1064.7939424 335 1093 342.6111584 1093 352 C 1093 361.3888416 1064.7939424 369 1030 369 C 995.2060576 369 967 361.3888416 967 352 Z" opacity="0.2"/></g><g transform="translate(-38,-22) scale(1,1)"><path fill="#ffffff" stroke="none" d="M 960 345 C 960 335.6111584 988.2060576 328 1023 328 C 1057.7939424 328 1086 335.6111584 1086 345 C 1086 354.3888416 1057.7939424 362 1023 362 C 988.2060576 362 960 354.3888416 960 345 Z"/></g><g transform="translate(-38,-22) scale(1,1)"><path fill="none" stroke="#000000" d="M 960 345 C 960 335.6111584 988.2060576 328 1023 328 C 1057.7939424 328 1086 335.6111584 1086 345 C 1086 354.3888416 1057.7939424 362 1023 362 C 988.2060576 362 960 354.3888416 960 345 Z" stroke-miterlimit="10"/></g><g transform="translate(-38,-22) scale(1,1)"><g><path fill="none" stroke="none"/><text fill="#000000" stroke="none" font-family="Arial" font-size="13px" font-style="normal" font-weight="bold" text-decoration="none" x="985.7900390625" y="352">Unset Admin</text></g></g><g transform="translate(-38,-22) scale(1,1)"><path fill="none" stroke="#000000" d="M 1087 345 L 1151 345" stroke-miterlimit="10" stroke-dasharray="3"/></g><g transform="translate(-38,-22) scale(1,1)"><path fill="none" stroke="#000000" d="M 1140.837325142376 349.209517756016 L 1151 345 L 1140.837325142376 340.790482243984" stroke-miterlimit="10"/></g><g transform="translate(-38,-22) scale(1,1)"><g><path fill="none" stroke="none"/><text fill="#000000" stroke="none" font-family="Arial" font-size="13px" font-style="normal" font-weight="normal" text-decoration="none" x="1092" y="341">«include»</text></g></g><g transform="translate(-38,-22) scale(1,1)"><path fill="none" stroke="#000000" d="M 1041 363 L 1132 455" stroke-miterlimit="10" stroke-dasharray="3"/></g><g transform="translate(-38,-22) scale(1,1)"><path fill="none" stroke="#000000" d="M 1121.8604793563513 450.7350121785609 L 1132 455 L 1127.8460780051128 444.81447438467745" stroke-miterlimit="10"/></g><g transform="translate(-38,-22) scale(1,1)"><g><path fill="none" stroke="none"/><text fill="#000000" stroke="none" font-family="Arial" font-size="13px" font-style="normal" font-weight="normal" text-decoration="none" x="1081" y="394">«extend»</text></g></g><g transform="translate(-38,-22) scale(1,1)"><path fill="none" stroke="#000000" d="M 1196 363 L 1158 455" stroke-miterlimit="10" stroke-dasharray="3"/></g><g transform="translate(-38,-22) scale(1,1)"><path fill="none" stroke="#000000" d="M 1157.9890094369543 444.00000549056847 L 1158 455 L 1165.7703992089753 447.21405778770753" stroke-miterlimit="10"/></g><g transform="translate(-38,-22) scale(1,1)"><g><path fill="none" stroke="none"/><text fill="#000000" stroke="none" font-family="Arial" font-size="13px" font-style="normal" font-weight="normal" text-decoration="none" x="1178" y="427">«extend»</text></g></g><g transform="translate(-38,-22) scale(1,1)"><path fill="none" stroke="#000000" d="M 1335 282 L 1242 327" stroke-miterlimit="10"/></g><g transform="translate(-38,-22) scale(1,1)"><path fill="none" stroke="#000000" d="M 1335 272 L 1087 330" stroke-miterlimit="10"/></g><g transform="translate(-38,-22) scale(1,1)"><path fill="none" stroke="#000000" d="M 1335 300 L 1169 455" stroke-miterlimit="10"/></g></g></svg>